PathFileType	4	(X/Y/Z)	C:\Users\Hakeem\Desktop\Python Projects\BasketballMotionAnalysis\Sports2D_Results\free_throw_Sports2D\free_throw_Sports2D_m_person00.trc
DataRate	CameraRate	NumFrames	NumMarkers	Units	OrigDataRate	OrigDataStartFrame	OrigNumFrames
30.0	30.0	6	22	m	30.0	12	90
Frame#	Time	Hip			RHip			RKnee			RAnkle			RBigToe			RSmallToe			RHeel			LHip			LKnee			LAnkle			LBigToe			LSmallToe			LHeel			Neck			Head			Nose			RShoulder			RElbow			RWrist			LShoulder			LElbow			LWrist			
		X1	Y1	Z1	X2	Y2	Z2	X3	Y3	Z3	X4	Y4	Z4	X5	Y5	Z5	X6	Y6	Z6	X7	Y7	Z7	X8	Y8	Z8	X9	Y9	Z9	X10	Y10	Z10	X11	Y11	Z11	X12	Y12	Z12	X13	Y13	Z13	X14	Y14	Z14	X15	Y15	Z15	X16	Y16	Z16	X17	Y17	Z17	X18	Y18	Z18	X19	Y19	Z19	X20	Y20	Z20	X21	Y21	Z21	X22	Y22	Z22
12	0.4044943820224719	2.6225484300935187	0.7653755403261413	0.0301	2.5923756855744813	0.7872239762407898	0.0301	2.5791499577542427	0.4132783951058296	0.129	2.2774193027154985	0.13041279416511414	0.023	2.4081547646022683	0.001881783173000221	0.2179	2.3621559959191143	0.010329495528930439	0.1804	2.202597228809604	0.10845734892378668	-0.0119	2.668343591528917	0.7490162888960231	0.0301	2.6753804631383082	0.3837580175530981	0.129	2.4101522726949796	0.13430137030327902	0.023	2.536980515639386	-0.0005535419006846645	0.2179	2.524826626834338	0.023172297447232613	0.1804	2.351150175487723	0.10661715785355952	-0.0119	3.012996764579063	1.1595467196029239	0.0008	3.1708612385487602	1.361247557780613	0.0655	3.194594330879975	1.235536481484443	0.1076	2.960616165809878	1.1063970509149479	-0.01275	2.859640836984742	0.8686779464846233	0.0702	3.030099881266887	0.8212653879337463	0.1076	2.97214626132601	1.1022710405738598	-0.01275	2.8401864949520084	0.8932524357440064	0.0702	3.003275440656063	0.7633537531528242	0.1076
13	0.4382022471910112	2.6231304145044394	0.7723064786797897	0.0301	2.593747954833673	0.7938247645044678	0.0301	2.5766885445900436	0.41781593031852166	0.129	2.276798847696523	0.13125178749302444	0.023	2.4086632604983	0.003187355546723718	0.2179	2.358195103391642	0.012856246781604365	0.1804	2.2011378442698843	0.10795059319852289	-0.0119	2.6687763721877538	0.7544550573472751	0.0301	2.668017131922353	0.3893615842775938	0.129	2.409775865918264	0.13533405122926928	0.023	2.5377693979301195	0.002608675129132435	0.2179	2.524611323203982	0.025279677556498042	0.1804	2.3502553177888688	0.1060173080719208	-0.0119	3.0180052342013624	1.1656159910410944	0.0008	3.176071310012078	1.3683314821531327	0.0655	3.1988083398326204	1.244785291088941	0.1076	2.964856974612153	1.1128492748673335	-0.01275	2.8636522171713032	0.8765118734925368	0.0702	3.034044401840649	0.8221266478399551	0.1076	2.97478790730511	1.1094267519953567	-0.01275	2.8448767150800833	0.9031241586501725	0.0702	3.0073266272030343	0.7704788362865963	0.1076
14	0.47191011235955055	2.6237002357100683	0.7743435240223325	0.0301	2.5949369420572017	0.7963474483190853	0.0301	2.5766699557585637	0.41941474310295446	0.129	2.2767571799645814	0.13232199021480523	0.023	2.4099418128279075	0.005486274832418861	0.2179	2.354610075184453	0.01555818705699095	0.1804	2.2014728738728175	0.10788799513482066	-0.0119	2.66928524238079	0.7563664975386917	0.0301	2.664337212285572	0.39235893652391973	0.129	2.410088057581939	0.13648862911617723	0.023	2.5384676783942988	0.003935776379888462	0.2179	2.526865542856766	0.02669876635717344	0.1804	2.3497596835644465	0.10687727761605384	-0.0119	3.0198178486966505	1.169177530641598	0.0008	3.177053096636035	1.3711766228958213	0.0655	3.200367883377961	1.2490224335211475	0.1076	2.9652135303489207	1.1174523997035573	-0.01275	2.868343937790712	0.8798930610488073	0.0702	3.039869696025143	0.8196209546078067	0.1076	2.9735045759620307	1.1149515638531708	-0.01275	2.8486594037601716	0.9114132320640598	0.0702	3.0105154225736928	0.7757093672660468	0.1076
15	0.5056179775280899	2.6233603907431937	0.771934130011562	0.0301	2.595569834085189	0.7945561714041167	0.0301	2.580897142366432	0.4164007923903495	0.129	2.277054130948366	0.13284259197102677	0.023	2.411116140737242	0.006235987251887092	0.2179	2.3541067680870924	0.01660589002118568	0.1804	2.202995521189257	0.10893229559207486	-0.0119	2.669331035909221	0.7558894427582591	0.0301	2.6652565770788663	0.393185752930031	0.129	2.41082038145097	0.13692886581294073	0.023	2.5387820909832386	0.0027121429931672354	0.2179	2.527595399615696	0.02831038113397794	0.1804	2.3494717372972462	0.1080836908975154	-0.0119	3.0171715486529322	1.1700735661989912	0.0008	3.174174694911553	1.369748301853612	0.0655	3.1993433504873345	1.2485408227260968	0.1076	2.963450269455341	1.117244771165585	-0.01275	2.873261438654323	0.8763166599777844	0.0702	3.0459551560498888	0.8163700348254022	0.1076	2.967199681082522	1.1187440631213346	-0.01275	2.8502896290585973	0.9132716700953198	0.0702	3.0127382900522504	0.779245794340737	0.1076
16	0.5393258426966292	2.622126380822243	0.7671782982308589	0.0301	2.5947734994463123	0.789335732395832	0.0301	2.58685419512855	0.4110926771394226	0.129	2.277445773535489	0.13266387921653905	0.023	2.412067775714155	0.005529979892680786	0.2179	2.3554566696174177	0.016046445037481698	0.1804	2.2045005514912055	0.11051460817691887	-0.0119	2.667927274437749	0.7528049083185033	0.0301	2.6685698523659127	0.39154018427118387	0.129	2.411595878886203	0.13608961508629036	0.023	2.5392416045248334	0.0015264028699486345	0.2179	2.5281629248269617	0.029206919518620172	0.1804	2.3492751943249552	0.10865346216186775	-0.0119	3.0125440575112385	1.1686594721806085	0.0008	3.169878632615747	1.3664414200121378	0.0655	3.196781768522431	1.245085923118415	0.1076	2.9605833849423053	1.1124678249639441	-0.01275	2.877121061727782	0.8675269462323857	0.0702	3.0490823556376228	0.8136326154448099	0.1076	2.959790502262805	1.1186070468927638	-0.01275	2.850734647153451	0.9099494174882229	0.0702	3.0152168562621453	0.783337547372256	0.1076
17	0.5730337078651685	2.6205866185765307	0.7619160622510079	0.0301	2.593218067610639	0.7825304841396956	0.0301	2.59214674672303	0.40635062923699505	0.129	2.277859427450033	0.13254247874709357	0.023	2.4130230728645974	0.004873653487479229	0.2179	2.3568122908140756	0.014964187124057568	0.1804	2.2052790992577185	0.1115683724335012	-0.0119	2.6647460146182333	0.7474786294306068	0.0301	2.670947426050693	0.3875748401754386	0.129	2.4118658708603644	0.13434656573349305	0.023	2.5401905477424322	0.0013290981978669601	0.2179	2.5322070685300293	0.02703767499213445	0.1804	2.3495387819567335	0.10856579756664243	-0.0119	3.0093349335978496	1.1659381127816786	0.0008	3.16561514267986	1.363383099836511	0.0655	3.193598561855199	1.2404557196345143	0.1076	2.9585743580966404	1.106357560248949	-0.01275	2.8800949263022164	0.8582261624654046	0.0702	3.0483564451957106	0.8094130905408835	0.1076	2.9558111682721706	1.115202515903347	-0.01275	2.8502942197784744	0.9044908620937642	0.0702	3.017670939658437	0.7865951350209701	0.1076
